<svg width="22" height="19" viewBox="0 0 22 19" xmlns="http://www.w3.org/2000/svg"><title>B1B6C6C1-5467-44E1-8BB2-6BE82D4D7489</title><g id="Symbols" fill="none" fill-rule="evenodd"><g id="FOOTER" transform="translate(-933 -61)" fill="#FFF"><g transform="translate(933 60)" id="Group-20"><g id="Group-18" transform="translate(0 1)"><path d="M1.367 6.159H5.42V19H1.367V6.16zm15.127-.124c-2.322 0-3.777 1.258-4.046 2.139V6.159H7.895c.059 1.07 0 12.842 0 12.842h4.553v-6.95c0-.386-.018-.772.1-1.049.312-.772.985-1.574 2.194-1.574 1.581 0 2.3 1.188 2.3 2.927V19h4.596V11.86c0-3.978-2.263-5.825-5.144-5.825zM3.318.095c-1.496 0-2.475.962-2.475 2.23 0 1.246.951 2.227 2.418 2.227h.03c1.523 0 2.472-.985 2.472-2.23C5.733 1.056 4.814.097 3.318.097z" id="Linkedin"/></g></g></g></g></svg>