<svg width="25" height="21" viewBox="0 0 25 21" xmlns="http://www.w3.org/2000/svg"><title>B28D72F9-09E7-4DCE-8A52-21D5216F5D22</title><g id="Symbols" fill="none" fill-rule="evenodd"><g id="FOOTER" transform="translate(-1101 -60)" fill="#FFF"><g transform="translate(933 60)" id="Group-20"><g id="Group-19" transform="translate(168)"><path d="M17.348 6.958c-2.31.117-4.32.8-5.951 2.34-1.648 1.557-2.4 3.465-2.195 5.83-.903-.11-1.725-.23-2.552-.297-.286-.023-.625.01-.867.143-.803.441-1.573.94-2.486 1.495.167-.737.276-1.383.468-2.005.14-.456.075-.71-.357-1.008C.635 11.55-.534 8.696.341 5.758 1.15 3.04 3.138 1.392 5.839.532 9.526-.64 13.669.556 15.91 3.406c.81 1.03 1.306 2.185 1.438 3.552zM6.714 6.042c.022-.537-.457-1.021-1.024-1.037-.582-.017-1.06.416-1.077.974-.017.565.427 1.019 1.012 1.033.581.014 1.068-.419 1.09-.97zm5.548-1.038c-.57.01-1.052.483-1.041 1.023.01.56.482.997 1.069.99.587-.007 1.033-.45 1.027-1.02-.004-.56-.475-1.003-1.055-.993z" id="Shape"/><path d="M22.538 20.984c-.731-.317-1.402-.793-2.117-.866-.712-.072-1.46.328-2.204.402-2.269.226-4.3-.39-5.976-1.899-3.187-2.87-2.732-7.271.955-9.623 3.277-2.09 8.083-1.394 10.393 1.507 2.016 2.531 1.78 5.891-.682 8.017-.712.616-.969 1.122-.512 1.934.085.15.094.339.143.528zm-8.327-7.851c.465 0 .849-.355.866-.803a.854.854 0 0 0-.86-.874c-.483-.002-.888.401-.87.868.015.447.401.808.864.809zm5.368-1.675a.851.851 0 0 0-.854.802c-.02.475.36.866.843.867.467.001.836-.343.853-.796a.843.843 0 0 0-.842-.873z" id="Shape"/></g></g></g></g></svg>