<svg width="25" height="18" viewBox="0 0 25 18" xmlns="http://www.w3.org/2000/svg"><title>1D26C343-11B6-4576-8584-4B2B27941BA8</title><g id="Symbols" fill="none" fill-rule="evenodd"><g id="FOOTER" transform="translate(-1041 -63)" fill="#FFF"><g transform="translate(933 60)" id="Group-20"><path d="M131.98 5.932c-.3-1.292-1.361-2.244-2.638-2.387-3.026-.337-6.088-.547-9.138-.545-3.049-.002-6.111.208-9.137.545-1.278.143-2.339 1.095-2.637 2.387-.425 1.84-.43 3.849-.43 5.743 0 1.895 0 3.903.425 5.743.298 1.292 1.36 2.245 2.637 2.387 3.026.336 6.088.546 9.137.545 3.05.001 6.112-.208 9.137-.545 1.278-.142 2.34-1.095 2.638-2.387.425-1.84.428-3.848.428-5.743 0-1.894.002-3.903-.423-5.743m-7.618 6.305l-5.752 3.11c-.572.31-1.04.03-1.04-.62V8.624c0-.65.468-.93 1.04-.62l5.752 3.11c.572.309.572.815 0 1.124" id="Shape"/></g></g></g></svg>